{"title":"Pirates of the Caribbean On Stranger Tides TS XViD - DTRG - SAFC","uid":6411724,"size":1086754334,"categoryP":"video","categoryS":"movies","magnet":"?xt=urn:btih:8730490d5d9074a303729d90b33169b46cddd5ec&amp;dn=Pirates+of+the+Caribbean+On+Stranger+Tides+TS+XViD+-+DTRG+-+SAFC&amp;tr=udp%3A%2F%2Ftracker.openbittorrent.com%3A80&amp;tr=udp%3A%2F%2Fopen.demonii.com%3A1337&amp;tr=udp%3A%2F%2Ftracker.coppersurfer.tk%3A6969&amp;tr=udp%3A%2F%2Fexodus.desync.com%3A6969","seeders":1,"leechers":0,"uploader":"SAFCukO09","files":5,"time":1306009555,"description":"Format : AVI\nFormat/Info : Audio Video Interleave\nFile size : 1.00 GiB\nDuration : 2h 7mn\nOverall bit rate : 1 132 Kbps\nWriting library : VirtualDub build 32839/release\n\nVideo\nID : 0\nFormat : MPEG-4 Visual\nFormat profile : Advanced Simple@L5\nFormat settings, BVOP : 2\nFormat settings, QPel : No\nFormat settings, GMC : No warppoints\nFormat settings, Matrix : Default (H.263)\nMuxing mode : Packed bitstream\nCodec ID : XVID\nCodec ID/Hint : XviD\nDuration : 2h 7mn\nBit rate : 995 Kbps\nWidth : 720 pixels\nHeight : 288 pixels\nDisplay aspect ratio : 2.500\nFrame rate : 25.000 fps\nColor space : YUV\nChroma subsampling : 4:2:0\nBit depth : 8 bits\nScan type : Progressive\nCompression mode : Lossy\nBits/(Pixel*Frame) : 0.192\nStream size : 904 MiB (88%)\nWriting library : XviD 63\n\nAudio\nID : 1\nFormat : MPEG Audio\nFormat version : Version 1\nFormat profile : Layer 3\nMode : Joint stereo\nMode extension : MS Stereo\nCodec ID : 55\nCodec ID/Hint : MP3\nDuration : 2h 7mn\nBit rate mode : Constant\nBit rate : 128 Kbps\nChannel(s) : 2 channels\nSampling rate : 44.1 KHz\nCompression mode : Lossy\nStream size : 116 MiB (11%)\nAlignment : Split accross interleaves\nInterleave, duration : 40 ms (1.00 video frame)\nInterleave, preload duration : 500 ms\nWriting library : LAME3.98r\nEncoding settings : -m j -V 4 -q 2 -lowpass 17 -b 128\n\n\n\n &lt;a href=&quot;\nhttp://www.imdb.com/title/tt1298650/&quot; rel=&quot;nofollow&quot; target=&quot;_NEW&quot;&gt;\nhttp://www.imdb.com/title/tt1298650/&lt;/a&gt;\n\n\n\n\n\n\n\n\nStoryline\n\nCaptain Jack Sparrow (Depp) crosses paths with a woman from his past (Cruz), and he's not sure if it's love -- or if she's a ruthless con artist who's using him to find the fabled Fountain of Youth. When she forces him aboard the Queen Anne's Revenge, the ship of the formidable pirate Blackbeard (McShane), Jack finds himself on an unexpected adventure in which he doesn't know who to fear more: Blackbeard or the woman from his past.\n\n\n\n\n\n\n\n\n\n\n\n\n\n\n\n\n\nSource Used\n\n\nVIDEO: ............ KiNOPARK....(IMAGiNE) ......... Thanks\nAUDIO: ............ IMAGiNE..............................Thanks\n\n\nReal dark movie so included 2 samples so check them out 1st before moaning later .Around the 24min mark it goes slight oos for 5-6mins but comes back in so another reason up to you as will be a V2 of this\n\nBrightened it up a touch but couldnt much..Slight smoother ,slight sharpen and slight rgb colour change\n\nEnjoy ! Remember no bitchin !\n\n\n\nGreetz to IMAGiNE,Flawl3ss,DiLLoN,BDK,NOiR,TOXiCiNK,THC,Ez,Rx,Boobyblue,TaRiQ786,LKRG,CrEwSaDe","torrent":{"xt":"urn:btih:8730490d5d9074a303729d90b33169b46cddd5ec","amp;dn":"Pirates+of+the+Caribbean+On+Stranger+Tides+TS+XViD+-+DTRG+-+SAFC","amp;tr":["udp%3A%2F%2Ftracker.openbittorrent.com%3A80","udp%3A%2F%2Fopen.demonii.com%3A1337","udp%3A%2F%2Ftracker.coppersurfer.tk%3A6969","udp%3A%2F%2Fexodus.desync.com%3A6969"],"infoHash":"8730490d5d9074a303729d90b33169b46cddd5ec","infoHashBuffer":{"type":"Buffer","data":[135,48,73,13,93,144,116,163,3,114,157,144,179,49,105,180,108,221,213,236]},"announce":[],"urlList":[]}}